Jump_normalized_Precision Landing05_filtered_grf
version=1
nRows=25
nColumns=37
inDegrees=yes
endheader
time		1_ground_force_vx		1_ground_force_vy		1_ground_force_vz		1_ground_force_px		1_ground_force_py		1_ground_force_pz		1_ground_torque_x		1_ground_torque_y		1_ground_torque_z		2_ground_force_vx		2_ground_force_vy		2_ground_force_vz		2_ground_force_px		2_ground_force_py		2_ground_force_pz		2_ground_torque_x		2_ground_torque_y		2_ground_torque_z		3_ground_force_vx		3_ground_force_vy		3_ground_force_vz		3_ground_force_px		3_ground_force_py		3_ground_force_pz		3_ground_torque_x		3_ground_torque_y		3_ground_torque_z		4_ground_force_vx		4_ground_force_vy		4_ground_force_vz		4_ground_force_px		4_ground_force_py		4_ground_force_pz		4_ground_torque_x		4_ground_torque_y		4_ground_torque_z		
0.559500		0.000000		0.000000		0.000000		0.085807		0.000000		0.311172		0.000000		0.000000		-0.000000		0.000000		0.000000		0.000000		-0.174735		0.000000		0.224768		0.000000		-0.000000		0.000000		-22.952143		578.250479		128.298593		0.352027		1.254880		1.892951		1.041099		-26.229196		-5.819570		12.666345		562.185035		98.174998		-0.289818		1.263873		1.902179		0.693819		30.794584		5.377692		
0.563641		-0.000000		0.000000		0.000000		0.085807		0.000000		0.311172		0.000000		0.000000		-0.000000		0.000000		0.000000		0.000000		-0.174735		0.000000		0.224768		0.000000		-0.000000		0.000000		-23.594788		578.307991		127.658029		0.352085		1.254862		1.892978		1.070297		-26.232966		-5.790770		13.284810		561.026835		96.171464		-0.289827		1.263874		1.902232		0.730300		30.841084		5.286791		
0.567783		-0.000000		-0.000000		0.000000		0.085807		0.000000		0.311172		0.000000		0.000000		0.000000		0.000000		0.000000		0.000000		-0.174735		0.000000		0.224768		0.000000		-0.000000		0.000000		-24.055864		577.889600		126.886539		0.352144		1.254846		1.893014		1.091460		-26.219931		-5.757079		14.059806		559.177129		94.331017		-0.289835		1.263880		1.902297		0.775275		30.833687		5.201523		
0.571924		-0.000000		-0.000000		-0.000000		0.085807		0.000000		0.311172		-0.000000		-0.000000		0.000000		0.000000		-0.000000		0.000000		-0.174735		0.000000		0.224768		-0.000000		-0.000000		-0.000000		-24.205299		576.945839		125.915172		0.352177		1.254832		1.893061		1.098759		-26.189488		-5.715708		14.916043		556.613946		92.434127		-0.289845		1.263890		1.902371		0.824298		30.759899		5.108144		
0.576066		-0.000000		-0.000000		-0.000000		0.085807		0.000000		0.311172		-0.000000		-0.000000		0.000000		-0.000000		-0.000000		-0.000000		-0.174735		0.000000		0.224768		-0.000000		0.000000		-0.000000		-23.986811		575.460199		124.852445		0.352184		1.254826		1.893114		1.089827		-26.145709		-5.672600		15.754166		553.363669		90.406782		-0.289853		1.263900		1.902443		0.871824		30.622744		5.003046		
0.580207		0.000000		-0.000000		-0.000000		0.085807		0.000000		0.311172		-0.000000		-0.000000		0.000000		-0.000000		-0.000000		-0.000000		-0.174735		0.000000		0.224768		-0.000000		0.000000		-0.000000		-23.401554		573.447568		123.839858		0.352180		1.254829		1.893161		1.064901		-26.095070		-5.635406		16.502814		549.595393		88.362218		-0.289855		1.263908		1.902504		0.914122		30.443136		4.894551		
0.584348		0.000000		0.000000		-0.000000		0.085807		0.000000		0.311172		0.000000		-0.000000		-0.000000		-0.000000		-0.000000		-0.000000		-0.174735		0.000000		0.224768		-0.000000		0.000000		-0.000000		-22.502482		570.935820		122.918891		0.352183		1.254841		1.893182		1.026284		-26.039019		-5.606037		17.132224		545.615272		86.486021		-0.289841		1.263915		1.902550		0.949849		30.250129		4.794978		
0.588490		0.000000		0.000000		0.000000		0.085807		0.000000		0.311172		0.000000		0.000000		-0.000000		-0.000000		0.000000		0.000000		-0.174735		0.000000		0.224768		0.000000		0.000000		0.000000		-21.413208		567.960415		121.977175		0.352197		1.254856		1.893174		0.979098		-25.969429		-5.577286		17.648380		541.739872		84.914023		-0.289815		1.263922		1.902583		0.979479		30.066383		4.712700		
0.592631		0.000000		0.000000		0.000000		0.085807		0.000000		0.311172		0.000000		0.000000		-0.000000		0.000000		0.000000		0.000000		-0.174735		0.000000		0.224768		0.000000		-0.000000		0.000000		-20.328064		564.565669		120.859915		0.352215		1.254872		1.893147		0.931575		-25.872366		-5.538650		18.069802		538.152362		83.638348		-0.289786		1.263931		1.902607		1.003994		29.900821		4.647114		
0.596773		-0.000000		0.000000		0.000000		0.085807		0.000000		0.311172		0.000000		0.000000		-0.000000		0.000000		0.000000		0.000000		-0.174735		0.000000		0.224768		0.000000		-0.000000		0.000000		-19.436247		560.835096		119.482426		0.352217		1.254891		1.893137		0.892046		-25.740092		-5.483766		18.390549		534.819826		82.530088		-0.289769		1.263940		1.902623		1.022973		29.749313		4.590730		
0.600914		-0.000000		-0.000000		0.000000		0.085807		0.000000		0.311172		-0.000000		0.000000		0.000000		0.000000		0.000000		0.000000		-0.174735		0.000000		0.224768		0.000000		-0.000000		0.000000		-18.838822		556.905604		117.881725		0.352183		1.254923		1.893179		0.865325		-25.580374		-5.414668		18.566939		531.559728		81.403979		-0.289771		1.263945		1.902632		1.033951		29.601365		4.533204		
0.605056		-0.000000		-0.000000		-0.000000		0.085807		0.000000		0.311172		-0.000000		-0.000000		0.000000		-0.000000		-0.000000		-0.000000		-0.174735		0.000000		0.224768		-0.000000		0.000000		-0.000000		-18.555933		552.968026		116.136706		0.352105		1.254973		1.893288		0.852866		-25.415460		-5.337864		18.536662		528.193625		80.108201		-0.289794		1.263948		1.902635		1.033526		29.449839		4.466494		
0.609197		0.000000		-0.000000		-0.000000		0.085807		0.000000		0.311172		-0.000000		-0.000000		0.000000		-0.000000		-0.000000		-0.000000		-0.174735		0.000000		0.224768		-0.000000		0.000000		-0.000000		-18.589228		549.233994		114.280326		0.351981		1.255039		1.893451		0.855288		-25.270166		-5.258019		18.257177		524.668762		78.599183		-0.289833		1.263949		1.902635		1.019503		29.298146		4.389074		
0.613338		0.000000		-0.000000		-0.000000		0.085807		0.000000		0.311172		-0.000000		-0.000000		0.000000		-0.000000		-0.000000		-0.000000		-0.174735		0.000000		0.224768		-0.000000		0.000000		-0.000000		-18.880223		545.889559		112.245542		0.351840		1.255105		1.893617		0.870155		-25.159046		-5.173190		17.749732		521.068784		76.874646		-0.289872		1.263949		1.902632		0.993261		29.158598		4.301844		
0.617480		0.000000		0.000000		-0.000000		0.085807		0.000000		0.311172		0.000000		-0.000000		-0.000000		-0.000000		-0.000000		-0.000000		-0.174735		0.000000		0.224768		-0.000000		0.000000		0.000000		-19.376805		543.042981		109.950120		0.351714		1.255158		1.893746		0.894965		-25.081774		-5.078316		17.082815		517.516604		74.972354		-0.289902		1.263950		1.902630		0.958653		29.041972		4.207295		
0.621621		0.000000		0.000000		0.000000		0.085807		0.000000		0.311172		0.000000		0.000000		-0.000000		0.000000		0.000000		0.000000		-0.174735		0.000000		0.224768		0.000000		-0.000000		0.000000		-20.010429		540.721389		107.368273		0.351637		1.255187		1.893809		0.926249		-25.029060		-4.969891		16.353846		514.095395		72.882599		-0.289912		1.263951		1.902628		0.920893		28.948965		4.104054		
0.625763		-0.000000		0.000000		0.000000		0.085807		0.000000		0.311172		0.000000		0.000000		-0.000000		0.000000		0.000000		0.000000		-0.174735		0.000000		0.224768		0.000000		-0.000000		0.000000		-20.736951		538.894372		104.604465		0.351621		1.255194		1.893819		0.961697		-24.991767		-4.851136		15.664402		510.797026		70.577746		-0.289905		1.263955		1.902627		0.885285		28.868064		3.988751		
0.629904		-0.000000		0.000000		0.000000		0.085807		0.000000		0.311172		0.000000		0.000000		-0.000000		0.000000		0.000000		0.000000		-0.174735		0.000000		0.224768		0.000000		-0.000000		0.000000		-21.490138		537.545091		101.768616		0.351661		1.255182		1.893787		0.998134		-24.966884		-4.726757		15.106197		507.526494		67.988099		-0.289884		1.263962		1.902627		0.856723		28.783530		3.855832		
0.634045		-0.000000		-0.000000		0.000000		0.085807		0.000000		0.311172		-0.000000		0.000000		0.000000		0.000000		-0.000000		0.000000		-0.174735		0.000000		0.224768		0.000000		-0.000000		-0.000000		-22.236320		536.669282		98.959466		0.351740		1.255151		1.893725		1.033968		-24.954616		-4.601522		14.739236		504.126880		65.075224		-0.289854		1.263973		1.902630		0.838648		28.684340		3.702718		
0.638187		-0.000000		-0.000000		-0.000000		0.085807		0.000000		0.311172		-0.000000		-0.000000		0.000000		-0.000000		-0.000000		-0.000000		-0.174735		0.000000		0.224768		-0.000000		0.000000		-0.000000		-23.022797		536.232929		96.232410		0.351831		1.255110		1.893647		1.071405		-24.954505		-4.478338		14.573705		500.430373		61.868052		-0.289823		1.263986		1.902634		0.831944		28.567203		3.531753		
0.642328		0.000000		-0.000000		-0.000000		0.085807		0.000000		0.311172		-0.000000		-0.000000		0.000000		-0.000000		-0.000000		-0.000000		-0.174735		0.000000		0.224768		-0.000000		0.000000		-0.000000		-23.925180		536.122165		93.638854		0.351915		1.255070		1.893563		1.113981		-24.962399		-4.359921		14.557418		496.315965		58.479335		-0.289796		1.263998		1.902643		0.833950		28.432441		3.350102		
0.646470		0.000000		-0.000000		-0.000000		0.085807		0.000000		0.311172		-0.000000		-0.000000		0.000000		-0.000000		-0.000000		-0.000000		-0.174735		0.000000		0.224768		-0.000000		0.000000		-0.000000		-24.984280		536.152378		91.204443		0.351977		1.255042		1.893490		1.163626		-24.970918		-4.247782		14.609387		491.742436		55.058524		-0.289774		1.264006		1.902651		0.840134		28.278345		3.166218		
0.650611		0.000000		0.000000		-0.000000		0.085807		0.000000		0.311172		0.000000		-0.000000		-0.000000		-0.000000		0.000000		-0.000000		-0.174735		0.000000		0.224768		-0.000000		0.000000		0.000000		-26.142823		536.106775		88.953357		0.352019		1.255031		1.893439		1.217774		-24.972698		-4.143588		14.658827		486.737313		51.716030		-0.289753		1.264009		1.902661		0.846305		28.101026		2.985743		
0.654753		0.000000		0.000000		0.000000		0.085807		0.000000		0.311172		0.000000		0.000000		-0.000000		0.000000		0.000000		0.000000		-0.174735		0.000000		0.224768		0.000000		-0.000000		0.000000		-27.270404		535.803286		86.888085		0.352049		1.255035		1.893413		1.270568		-24.963857		-4.048242		14.666151		481.358185		48.499403		-0.289729		1.264010		1.902670		0.850034		27.898986		2.810969		
0.658894		-0.000000		0.000000		0.000000		0.085807		0.000000		0.311172		0.000000		0.000000		-0.000000		0.000000		0.000000		0.000000		-0.174735		0.000000		0.224768		0.000000		-0.000000		0.000000		-28.213992		535.133414		84.987898		0.352082		1.255044		1.893404		1.315089		-24.943235		-3.961391		14.619007		475.663079		45.383926		-0.289698		1.264008		1.902673		0.850558		27.674865		2.640510		
